PathFileType	4	(X/Y/Z)	./resultDataOpenSim/trcMotMarkerGrf/sub06/qtm-04-01.trc
DataRate	CameraRate	NumFrames	NumMarkers	Units	OrigDataRate	OrigDataStartFrame	OrigNumFrames
250.000000	250.000000	13	24	m	250.000000	257	513
Frame#	Time	L.Toe.Tip			R.Toe.Tip			L.Ankle.Lat			R.Ankle.Lat			L.Ankle.Med			R.Ankle.Med			L.Heel			R.Heel			L.Knee.Lat			R.Knee.Lat			L.Knee.Med			R.Knee.Med			L.Thigh.Upper			R.Thigh.Upper			L.ASIS			R.ASIS			V.Sacral			L.Acromium			R.Acromium			C7			L.Elbow			R.Elbow			L.Wrist.Lat			R.Wrist.Lat
		X1	Y1	Z1	X2	Y2	Z2	X3	Y3	Z3	X4	Y4	Z4	X5	Y5	Z5	X6	Y6	Z6	X7	Y7	Z7	X8	Y8	Z8	X9	Y9	Z9	X10	Y10	Z10	X11	Y11	Z11	X12	Y12	Z12	X13	Y13	Z13	X14	Y14	Z14	X15	Y15	Z15	X16	Y16	Z16	X17	Y17	Z17	X18	Y18	Z18	X19	Y19	Z19	X20	Y20	Z20	X21	Y21	Z21	X22	Y22	Z22	X23	Y23	Z23	X24	Y24	Z24

257	1.024	0.038497788	-0.04006271	-0.0030469408	0.7727546	0.11107395	0.15970503	-0.064401301	0.03150131	-0.032290584	0.6386354	0.080573376	0.17155462	-0.05764846	0.048757606	0.053062136	0.65447046	0.11521107	0.08810764	-0.14120171	0.031620773	0.013362713	0.60363215	0.041794832	0.10449518	0.10483852	0.36595503	-0.052173129	0.52262577	0.45283906	0.19142287	0.094581956	0.36769221	0.069337331	0.51156731	0.43203606	0.064318824	0.21913506	0.72836004	-0.11934567	0.27706046	0.73719482	0.22920283	0.31183664	0.77043357	-0.088340761	0.36001582	0.78563068	0.15560496	0.15747003	0.85409664	0.068542666	0.32085104	1.2589037	-0.13025484	0.29180276	1.2463023	0.23232262	0.23290246	1.2958336	0.044113489	0.34403321	0.93658597	-0.20929274	0.1246912	0.979895	0.28199976	0.57144581	0.84730206	-0.15251942	0.16813634	0.75613055	0.3605826
258	1.028	0.038601578	-0.0400548	-0.0030590903	0.78315882	0.11165144	0.15836559	-0.063089825	0.032595394	-0.032566762	0.64931492	0.079990566	0.17056395	-0.056269105	0.049774613	0.052787098	0.66460465	0.11474785	0.087258345	-0.14003982	0.033738442	0.013198687	0.61444407	0.040850233	0.10370309	0.10975611	0.36542885	-0.052257314	0.53065138	0.45122649	0.19070864	0.10000205	0.36702885	0.069353314	0.51914773	0.43015547	0.063538452	0.22497275	0.72735342	-0.11863131	0.28715724	0.73564499	0.22899819	0.31783636	0.76930591	-0.088186239	0.36796643	0.78423795	0.15523533	0.16463888	0.85292901	0.069839503	0.32800778	1.2575553	-0.12986024	0.29920768	1.2448088	0.23293309	0.24022236	1.2946206	0.044774197	0.35456636	0.93501424	-0.20952446	0.13166344	0.97871763	0.28264615	0.58057559	0.84744125	-0.1512023	0.17432048	0.75501024	0.36167362
259	1.032	0.038696506	-0.040043707	-0.0030853726	0.79281556	0.11169087	0.15697609	-0.061730601	0.033765771	-0.032837332	0.65918121	0.079235027	0.16953222	-0.054721319	0.050883077	0.052546113	0.67402478	0.11402717	0.086325299	-0.13870582	0.035984779	0.013079867	0.62438314	0.039763802	0.10287132	0.11471282	0.36489645	-0.052333655	0.5387615	0.44982738	0.1899065	0.10573666	0.36625595	0.069343503	0.52671323	0.42840666	0.062811604	0.23089368	0.72636566	-0.11792426	0.29752323	0.73415116	0.22887178	0.32391241	0.76822329	-0.088093695	0.37602091	0.782884	0.15484387	0.17194236	0.85176945	0.071031667	0.33519887	1.2562564	-0.12941286	0.30664148	1.2433571	0.23355906	0.24761489	1.2934128	0.045424851	0.36497101	0.93348412	-0.20967643	0.1387344	0.97755646	0.2833056	0.58961218	0.84751964	-0.14991207	0.18056768	0.7538992	0.36274757
260	1.036	0.038787693	-0.040030397	-0.0031201718	0.80174177	0.11122915	0.15553456	-0.060322722	0.035020699	-0.033089556	0.66826861	0.078262887	0.168445	-0.053039954	0.052068756	0.052315448	0.68276299	0.11305127	0.085283052	-0.13718721	0.038354812	0.012972937	0.63348955	0.038498545	0.10198745	0.11980284	0.36435844	-0.05243735	0.54690532	0.44860457	0.18906533	0.11184984	0.36533424	0.069293071	0.53429105	0.42681832	0.062111881	0.23689405	0.7253706	-0.11724308	0.30810225	0.73270812	0.22881279	0.33019229	0.76716854	-0.088108836	0.3841698	0.78157118	0.1544212	0.17933492	0.85068235	0.072160189	0.3424245	1.2550139	-0.12890839	0.31410218	1.2419531	0.23420196	0.25505738	1.2922173	0.046097665	0.37519523	0.93200652	-0.20972634	0.14589525	0.97641523	0.28397185	0.59854304	0.84754191	-0.1486501	0.18689473	0.7528049	0.3638009
261	1.04	0.038874353	-0.040021799	-0.0031594106	0.80995516	0.11031352	0.15403328	-0.058858379	0.036354452	-0.033320531	0.67660563	0.077044467	0.16729524	-0.051243122	0.053314713	0.052074125	0.69084644	0.11182171	0.084145824	-0.13550816	0.040832561	0.012862391	0.64182011	0.037015701	0.10103374	0.12507905	0.36381337	-0.052581575	0.55501933	0.44748686	0.18824191	0.11828831	0.36429419	0.06919929	0.54192045	0.42541863	0.061400562	0.24297386	0.72436953	-0.11658743	0.31867246	0.73129561	0.22877469	0.33667527	0.76614052	-0.088202686	0.39239611	0.78028959	0.15395817	0.18678281	0.84969597	0.073263794	0.34968872	1.2538317	-0.12834355	0.32159605	1.2405998	0.23487089	0.26253215	1.2910401	0.046804648	0.38518719	0.93059228	-0.20965187	0.15313988	0.97529854	0.28464007	0.60736397	0.84751232	-0.14741756	0.19332767	0.75173257	0.36482612
262	1.044	0.038952651	-0.040026255	-0.0032011926	0.81748682	0.10898671	0.15247176	-0.057329672	0.037756556	-0.033545479	0.68422969	0.075559949	0.1660788	-0.049323398	0.054602571	0.051803385	0.69829031	0.11033441	0.082944102	-0.13369648	0.04339988	0.012749394	0.64942425	0.035292577	0.1000033	0.13054214	0.3632559	-0.052786066	0.5630672	0.44640022	0.18745592	0.12491602	0.36321801	0.069058716	0.54962719	0.42422221	0.060645409	0.24913773	0.7233797	-0.11594844	0.32888079	0.72990035	0.22869355	0.34329864	0.76514427	-0.08832779	0.40069096	0.7790317	0.153453	0.19427637	0.84878711	0.074361461	0.35699413	1.2527134	-0.12771422	0.32913109	1.2392984	0.23557514	0.27003285	1.2898882	0.047550549	0.394896	0.92925218	-0.20943126	0.16047035	0.9742141	0.28530543	0.61607524	0.84742961	-0.14621725	0.19989155	0.75068788	0.36582058
263	1.048	0.039028836	-0.040043046	-0.0032426956	0.82437215	0.10729106	0.15086651	-0.055709552	0.039219882	-0.033800506	0.69118727	0.073796104	0.16479899	-0.047272096	0.055916489	0.051481296	0.70509649	0.10857791	0.08169641	-0.13176326	0.046045714	0.012636571	0.65630339	0.033369979	0.09892211	0.13616869	0.36268088	-0.053089514	0.57105427	0.44529352	0.18667282	0.13161325	0.36217971	0.068857129	0.55737822	0.42321927	0.059861297	0.25539077	0.7224186	-0.1153158	0.33851629	0.72856325	0.22855962	0.35001238	0.76418407	-0.088464452	0.40905924	0.77779921	0.1529118	0.20183774	0.84790388	0.075456935	0.3643382	1.251662	-0.12701962	0.33670713	1.2380484	0.23631556	0.27756503	1.288767	0.048341161	0.4042727	0.92799681	-0.20904388	0.16788798	0.9731738	0.28596031	0.62467681	0.84729134	-0.14505027	0.20661429	0.74967691	0.36680268
264	1.052	0.039122105	-0.040060679	-0.0032796464	0.83064065	0.10526299	0.14923692	-0.053953975	0.040742047	-0.034129375	0.69752355	0.071752443	0.16347536	-0.045101719	0.057253167	0.051090623	0.71125528	0.10652943	0.080392134	-0.1297013	0.048777728	0.012526301	0.66237299	0.031413296	0.09786304	0.14195215	0.36208081	-0.053502797	0.57899273	0.4441368	0.18584039	0.13835909	0.36118384	0.068579694	0.56504717	0.42237041	0.059142827	0.26173531	0.7214944	-0.1146835	0.34774621	0.72738294	0.22845514	0.35680011	0.76326329	-0.088613527	0.4175121	0.77659944	0.15234591	0.20950066	0.84701082	0.076544701	0.37171774	1.2506797	-0.12626455	0.34431928	1.2368517	0.23708777	0.2851357	1.2876774	0.049180257	0.41326996	0.92683663	-0.20847007	0.17538554	0.972194	0.28659349	0.63316605	0.84709989	-0.14391487	0.21351801	0.74870552	0.36780768
265	1.056	0.039247537	-0.04006863	-0.0033103633	0.8363248	0.10289758	0.1475671	-0.052030042	0.042317907	-0.034548721	0.70328095	0.069463032	0.16214674	-0.042836161	0.058622475	0.050632397	0.7167714	0.10415612	0.078993247	-0.12749382	0.051616303	0.012422618	0.66749044	0.029710676	0.096917117	0.14792057	0.36143887	-0.053972521	0.58688301	0.44290378	0.18494446	0.14525089	0.3601742	0.068194487	0.57245631	0.42161045	0.058616114	0.26817215	0.7206093	-0.1140463	0.3569434	0.7264314	0.22847058	0.3636702	0.76238269	-0.088776318	0.42605565	0.77543946	0.15176938	0.21728407	0.84611072	0.077615222	0.37913403	1.2497677	-0.12545484	0.3519722	1.2357134	0.23789229	0.29274552	1.2866174	0.050067204	0.42183745	0.92578234	-0.20768833	0.18295054	0.97129292	0.28719399	0.64154123	0.84686344	-0.14280759	0.22059488	0.7477787	0.36885124
266	1.06	0.039403755	-0.040066134	-0.0033374396	0.84149266	0.10007218	0.14577033	-0.049927191	0.043933163	-0.035035978	0.70852448	0.067020751	0.16086094	-0.040475423	0.06003588	0.050122446	0.72171987	0.10143822	0.077457381	-0.12512053	0.054573359	0.012322586	0.67158539	0.028548155	0.096089554	0.15410605	0.36073588	-0.054431247	0.59472069	0.44155603	0.18402541	0.15242518	0.35911248	0.067629736	0.57951963	0.42087178	0.058299453	0.27470487	0.71976356	-0.11339531	0.36634064	0.72567868	0.22860722	0.37063345	0.76154021	-0.088949766	0.43468244	0.77432344	0.1511981	0.22519017	0.84522422	0.078659028	0.38658976	1.2489254	-0.12459268	0.35968077	1.2346374	0.23873559	0.30039072	1.2855856	0.050999329	0.42991035	0.92484591	-0.20666859	0.19057415	0.97048068	0.28775892	0.64980742	0.84659313	-0.14172465	0.2277984	0.74689873	0.36990861
267	1.064	0.039581799	-0.040057994	-0.003364695	0.84630742	0.096447862	0.1437203	-0.047651777	0.045579031	-0.035568307	0.71336722	0.064590148	0.15966126	-0.037972644	0.061501615	0.049575903	0.72629902	0.09842775	0.075784595	-0.12255413	0.057647928	0.012209786	0.67476905	0.028076416	0.095222605	0.16051405	0.35996404	-0.054865505	0.60247669	0.44004315	0.18314163	0.15991468	0.35799882	0.066868117	0.58633295	0.42010688	0.058049703	0.28134194	0.71895253	-0.11272732	0.37595272	0.72502339	0.22879909	0.37769048	0.76073369	-0.089127401	0.44336566	0.7732562	0.15064844	0.23320456	0.84437267	0.079668	0.39408317	1.2481491	-0.12367642	0.3674568	1.2336213	0.23962132	0.30806633	1.2845831	0.051973107	0.43739723	0.92404161	-0.20536515	0.19826152	0.96974404	0.28830013	0.65797291	0.84629763	-0.14066441	0.23506696	0.74606261	0.37094318
268	1.068	0.039779874	-0.040047224	-0.0033935697	0.85106244	0.091495648	0.14142565	-0.045234828	0.04728206	-0.036157796	0.71793779	0.06239833	0.15859308	-0.035257234	0.063026644	0.04899337	0.73082675	0.095309608	0.074076955	-0.11975577	0.060839624	0.012058888	0.67727779	0.028306116	0.094155682	0.16713724	0.35912798	-0.055307004	0.6100865	0.43833914	0.18232336	0.16758846	0.35681873	0.066054181	0.59304773	0.41927758	0.05773197	0.28809576	0.71817193	-0.11206144	0.38566585	0.72439919	0.22899891	0.38483909	0.75996214	-0.089296752	0.4520621	0.77225154	0.15013386	0.24128727	0.84359144	0.080638851	0.40160862	1.2474347	-0.12270427	0.37530398	1.2326605	0.24054496	0.31576517	1.2836173	0.052983593	0.44419334	0.92338488	-0.2037248	0.20603129	0.96904427	0.28884161	0.66603986	0.84597733	-0.13962885	0.24236521	0.74526253	0.37194081
269	1.072	0.040010329	-0.040033872	-0.0034207296	0.85604311	0.084850011	0.13926016	-0.042740107	0.049109584	-0.036832441	0.72229956	0.060661363	0.1577244	-0.032282335	0.064610617	0.048353528	0.73559316	0.092364479	0.072542278	-0.11668912	0.064146656	0.011841176	0.679334	0.029131258	0.09300632	0.17397352	0.35823479	-0.05578765	0.61751448	0.43651288	0.18155834	0.17529121	0.3555404	0.065362057	0.59970527	0.41833295	0.057382913	0.29498341	0.71742265	-0.11142617	0.39517239	0.72390285	0.22925609	0.39208271	0.75922635	-0.089441594	0.46072726	0.77133228	0.14966128	0.24938417	0.84293424	0.081573701	0.40916169	1.2467846	-0.12168012	0.38322462	1.2317546	0.24149823	0.32348012	1.2827039	0.054027901	0.45026395	0.92288525	-0.20173622	0.21389204	0.96834564	0.28940514	0.67400459	0.8456268	-0.13862261	0.24972218	0.74449371	0.37291061
